# xmcd CD database file
#
# Track frame offsets:
#	150
#	13502
#	32242
#	49026
#	66833
#	89210
#	107790
#	124488
#	139310
#	154625
#	174367
#	189755
#	205491
#	224661
#	245435
#	266822
#	285142
#	302301
#	316010
#	331838
#
# Disc length: 4664 seconds
#
# Revision: 0
# Processed by: cddbd v1.5.2PL0 Copyright (c) Steve Scherf et al.
# Submitted via: CDex 2.11
#
DISCID=20123614
DTITLE=Various Artist - The Hottest Stars On The Planet - CD1
DYEAR=2015
DGENRE=Country
TTITLE0=Adam Harvey - She Don't Know She's Beautiful
TTITLE1=Kenny Chesney - Come Over
TTITLE2=Alan Jackson - So You Dont Have To Love Me Anym
TTITLE3=Brad Paisley - Perfect Storm
TTITLE4=Carrie Underwood - Two Black Cadillacs
TTITLE5=Tim McGraw - Felt Good On My Lips
TTITLE6=Lee Brice -  Hard To Love
TTITLE7=Tyler Farr - A Guy Walks Into A Bar
TTITLE8=Dolly Parton - Home
TTITLE9=LeAnn Rimes - What Have I Done
TTITLE10=Miranda Lambert - Little Red Wagon
TTITLE11=Brooks and Dunn - Put A Girl In It
TTITLE12=Lonestar - Im Already There
TTITLE13=Martina McBride - Blessed
TTITLE14=Troy Cassardaley Adam Harvey - Good Hearted Wom
TTITLE15=Mary Chapin Carpenter - He Thinks He'll Keep He
TTITLE16=Lyle Lovett - Don't Touch My Hat
TTITLE17=Merle Haggard - Thats The Way Love Goes
TTITLE18=Willie Nelson - The Wall
TTITLE19=Rosanne Cash - Runaway Train
EXTD=YEAR: 2015
EXTT0=
EXTT1=
EXTT2=
EXTT3=
EXTT4=
EXTT5=
EXTT6=
EXTT7=
EXTT8=
EXTT9=
EXTT10=
EXTT11=
EXTT12=
EXTT13=
EXTT14=
EXTT15=
EXTT16=
EXTT17=
EXTT18=
EXTT19=
PLAYORDER=
